<svg 
 xmlns="http://www.w3.org/2000/svg"
 xmlns:xlink="http://www.w3.org/1999/xlink"
 width="241px" height="105px">
<path fill-rule="evenodd"  fill="#fff"
 d="M53.391,57.906 L53.391,77.752 C53.391,83.409 57.965,87.999 63.604,87.999 L100.002,87.999 L100.002,0.001 L63.604,0.001 C57.965,0.001 53.391,4.583 53.391,10.242 L53.391,29.433 L76.473,29.433 C80.041,29.433 82.949,32.335 82.949,35.921 L82.949,51.407 C82.949,55.000 80.041,57.906 76.473,57.906 L53.391,57.906 ZM46.614,57.906 L46.614,77.752 C46.614,83.409 42.042,87.999 36.392,87.999 L-0.002,87.999 L-0.002,0.001 L36.392,0.001 C42.042,0.001 46.614,4.583 46.614,10.242 L46.614,29.433 L23.543,29.433 C19.962,29.433 17.051,32.335 17.051,35.921 L17.051,51.407 C17.051,55.000 19.962,57.906 23.543,57.906 L46.614,57.906 Z"/>
<path fill-rule="evenodd"  fill="#fff"
 d="M42.764,64.090 C43.757,64.301 45.070,64.471 46.028,64.745 C46.631,64.907 48.253,64.734 48.662,64.616 C49.487,64.483 50.320,64.352 51.147,64.219 L51.147,64.090 L51.536,64.090 L51.536,63.957 L51.797,63.957 L51.797,63.837 C52.027,63.798 52.235,63.752 52.462,63.709 C52.497,63.620 52.548,63.536 52.584,63.444 L52.976,63.444 L52.976,63.322 L53.239,63.322 L53.239,63.194 L53.499,63.194 L53.499,63.062 L53.767,63.062 L53.767,62.937 C54.639,62.629 55.514,62.331 56.389,62.020 L56.389,61.762 L56.516,61.762 L56.516,60.735 C55.817,59.950 55.124,59.172 54.426,58.404 L54.031,58.404 L54.031,58.275 C53.743,58.176 52.745,58.455 52.584,58.532 C52.548,58.617 52.497,58.701 52.462,58.792 L52.206,58.792 C52.151,58.874 52.108,58.958 52.056,59.048 L51.797,59.048 C51.715,59.172 51.631,59.307 51.536,59.432 C51.355,59.487 51.193,59.522 51.017,59.566 C50.965,59.652 50.925,59.735 50.881,59.821 L50.620,59.821 L50.620,59.950 L50.355,59.950 L50.355,60.082 L49.965,60.082 L49.965,60.220 L49.703,60.220 L49.703,60.338 C49.437,60.387 49.185,60.424 48.922,60.474 L48.922,60.603 L48.662,60.603 L48.662,60.735 L48.259,60.735 L48.259,60.854 L47.999,60.854 L47.999,60.990 L47.612,60.990 L47.612,61.118 C47.434,61.156 47.256,61.202 47.078,61.250 L47.078,61.375 L46.827,61.375 L46.827,61.507 L46.431,61.507 L46.431,61.636 C46.161,61.718 45.908,61.806 45.640,61.897 L45.640,62.020 C45.460,62.075 45.294,62.115 45.118,62.158 C45.076,62.240 45.034,62.331 44.987,62.413 L44.725,62.413 C44.075,62.844 43.416,63.279 42.764,63.709 L42.764,64.090 ZM40.535,49.211 C40.418,49.359 40.226,49.359 40.143,49.468 C40.099,49.648 40.058,49.818 40.002,49.989 C39.928,50.033 39.835,50.078 39.746,50.120 L39.746,50.514 L39.612,50.514 C39.579,50.684 39.531,50.854 39.486,51.029 L39.355,51.029 C39.313,51.284 39.268,51.538 39.223,51.804 L39.091,51.804 L39.091,52.191 L38.965,52.191 L38.965,52.581 L38.831,52.581 L38.831,52.969 L38.703,52.969 L38.703,53.353 L38.567,53.353 L38.567,53.748 L38.439,53.748 L38.439,54.135 L38.302,54.135 C38.265,54.429 38.221,54.736 38.176,55.035 L38.040,55.035 L38.040,55.424 L37.910,55.424 L37.910,57.883 L37.785,57.883 L37.785,58.404 L37.655,58.404 L37.655,58.657 L37.524,58.657 L37.524,59.566 L37.389,59.566 C37.159,60.377 37.462,61.541 37.655,62.020 C37.785,62.075 37.910,62.115 38.040,62.158 L38.040,62.020 C38.352,61.976 38.660,61.937 38.965,61.897 L38.965,61.762 C39.136,61.718 39.313,61.684 39.486,61.636 L39.486,61.507 L39.882,61.507 L39.882,61.375 C40.143,61.294 40.400,61.202 40.665,61.118 L40.665,60.990 L40.924,60.990 L40.924,60.854 C41.098,60.814 41.272,60.781 41.446,60.735 C41.493,60.651 41.537,60.553 41.577,60.474 C41.758,60.424 41.930,60.387 42.109,60.338 C42.149,60.261 42.196,60.168 42.237,60.082 L42.505,60.082 L42.505,59.950 C42.632,59.905 42.764,59.865 42.890,59.821 C42.929,59.735 42.982,59.652 43.022,59.566 L43.281,59.566 C43.368,59.432 43.461,59.307 43.552,59.172 L43.810,59.172 C43.855,59.087 43.902,59.007 43.938,58.917 L44.201,58.917 C44.290,58.792 44.380,58.657 44.460,58.532 L44.725,58.532 C44.769,58.443 44.806,58.359 44.858,58.275 L45.118,58.275 C45.208,58.151 45.294,58.021 45.379,57.883 L45.640,57.883 C45.690,57.801 45.734,57.709 45.770,57.628 L46.028,57.628 C46.122,57.489 46.204,57.373 46.300,57.242 L46.560,57.242 C46.600,57.152 46.652,57.066 46.688,56.978 L46.948,56.978 C46.995,56.890 47.044,56.806 47.078,56.715 L47.349,56.715 C47.473,56.544 47.612,56.373 47.739,56.200 C48.539,55.630 49.427,55.359 49.437,53.998 C49.268,53.874 49.094,53.748 48.922,53.616 L48.922,53.480 L48.662,53.480 C48.614,53.396 48.562,53.316 48.530,53.230 L48.259,53.230 C48.132,53.057 47.999,52.886 47.869,52.712 L47.612,52.712 C47.522,52.581 47.434,52.455 47.349,52.326 L47.078,52.326 C46.995,52.191 46.912,52.061 46.827,51.935 L46.560,51.935 C46.471,51.804 46.387,51.669 46.300,51.538 L46.028,51.538 C45.989,51.453 45.950,51.368 45.908,51.284 L45.640,51.284 C45.594,51.194 45.551,51.111 45.511,51.029 C45.379,50.986 45.249,50.941 45.118,50.890 L45.118,50.769 C44.725,50.637 44.337,50.514 43.938,50.376 L43.552,50.376 L43.552,50.246 L43.281,50.246 C43.240,50.163 43.202,50.078 43.155,49.989 C42.982,49.952 42.802,49.908 42.632,49.862 L42.632,49.725 L42.369,49.725 L42.369,49.604 L42.109,49.604 L42.109,49.468 C41.655,49.238 41.232,49.228 40.535,49.211 M62.149,47.402 C62.065,47.743 61.942,47.820 61.754,48.053 L61.622,48.053 C61.582,48.227 61.537,48.392 61.497,48.564 C61.408,48.611 61.315,48.656 61.231,48.691 C61.188,48.865 61.140,49.038 61.102,49.211 C61.018,49.252 60.926,49.300 60.836,49.339 C60.790,49.520 60.746,49.694 60.708,49.862 C60.618,49.908 60.534,49.952 60.446,49.989 L60.446,50.246 C60.274,50.376 60.092,50.514 59.921,50.637 L59.921,50.890 L59.780,50.890 C59.751,51.029 59.702,51.151 59.663,51.284 C59.572,51.327 59.484,51.368 59.403,51.412 L59.403,51.669 C59.095,51.935 58.790,52.191 58.478,52.455 L58.478,52.712 C58.314,52.840 58.132,52.969 57.953,53.097 C57.737,53.396 57.718,53.764 57.430,53.998 C57.394,54.502 57.240,54.960 57.430,55.424 L57.562,55.424 L57.562,55.684 C57.653,55.731 57.737,55.773 57.822,55.817 L57.822,56.068 L57.953,56.068 L57.953,56.328 L58.088,56.328 C58.551,57.351 58.624,59.014 59.780,59.307 L59.780,59.432 L60.316,59.432 L60.316,59.307 L60.708,59.307 C60.746,59.219 60.790,59.135 60.836,59.048 L61.102,59.048 C61.140,58.958 61.188,58.874 61.231,58.792 L61.497,58.792 C61.537,58.701 61.582,58.617 61.622,58.532 L61.887,58.532 L62.149,58.275 L62.149,58.021 C62.457,57.755 62.764,57.489 63.066,57.242 L63.066,56.978 C63.198,56.890 63.325,56.806 63.458,56.715 C63.504,56.544 63.548,56.373 63.587,56.200 C63.713,56.115 63.847,56.023 63.986,55.940 L63.986,55.684 L64.120,55.684 C64.162,55.555 64.198,55.424 64.243,55.297 C64.332,55.250 64.417,55.214 64.504,55.167 L64.504,54.907 C64.590,54.867 64.675,54.821 64.769,54.784 C64.808,54.647 64.855,54.520 64.898,54.390 C65.074,54.263 65.257,54.135 65.427,53.998 C65.640,53.714 65.677,53.447 65.948,53.230 C65.991,52.840 66.035,52.455 66.079,52.061 L65.948,52.061 L65.948,51.669 L65.948,50.890 L65.821,50.890 L65.821,50.120 L65.677,50.120 L65.677,49.725 L65.553,49.725 L65.553,49.468 L65.427,49.468 L65.427,49.211 L65.298,49.211 C65.257,49.084 65.205,48.952 65.157,48.825 C65.074,48.785 64.987,48.742 64.898,48.691 L64.898,48.435 C64.808,48.392 64.726,48.349 64.637,48.310 C64.467,48.092 64.285,47.876 64.120,47.666 L63.847,47.666 L63.847,47.542 C63.689,47.411 63.602,47.435 63.458,47.285 C63.155,47.227 62.850,47.190 62.538,47.149 C62.502,47.227 62.457,47.315 62.415,47.402 L62.149,47.402 ZM35.823,46.368 C35.471,46.276 35.400,46.163 35.161,45.975 L35.161,45.852 L34.898,45.852 C33.889,45.280 32.743,44.919 31.362,45.471 C31.009,46.398 31.224,48.154 31.231,49.339 C31.507,49.678 31.337,50.419 31.501,50.890 L31.625,50.890 L31.625,51.538 L31.757,51.538 C31.843,51.935 31.931,52.326 32.018,52.712 L32.149,52.712 L32.149,52.969 L32.287,52.969 L32.287,53.353 L32.411,53.353 L32.411,53.998 L32.547,53.998 L32.547,54.390 L32.672,54.390 L32.672,54.647 L32.810,54.647 L32.810,55.035 L32.927,55.035 L32.927,55.297 L33.061,55.297 C33.109,55.471 33.157,55.641 33.196,55.817 L33.324,55.817 C33.376,56.115 33.412,56.421 33.460,56.715 L33.591,56.715 L33.591,56.978 C33.719,57.066 33.850,57.152 33.986,57.242 L33.986,57.489 C34.111,57.541 34.243,57.585 34.384,57.628 C34.491,57.773 34.363,57.646 34.509,57.755 C34.565,57.090 34.733,56.242 34.898,55.684 C34.946,54.429 34.988,53.181 35.033,51.935 C35.335,50.922 35.505,49.565 35.823,48.564 L35.823,47.919 C35.852,47.811 36.134,46.912 36.082,46.760 C35.989,46.712 35.912,46.673 35.823,46.629 L35.823,46.368 ZM45.908,38.467 C45.758,39.028 45.486,38.926 45.249,39.258 L45.249,39.507 C45.118,39.596 44.987,39.681 44.858,39.772 C44.638,40.080 44.517,40.352 44.460,40.806 L44.201,40.806 C44.114,40.934 44.033,41.063 43.938,41.196 L43.810,41.196 L43.810,41.455 C43.722,41.495 43.629,41.536 43.552,41.580 C43.499,41.798 43.461,42.002 43.416,42.231 L43.281,42.231 L43.281,42.487 L43.155,42.487 C43.029,42.682 43.049,42.804 43.022,43.132 C43.338,43.324 43.237,43.514 43.416,43.648 C43.592,43.693 43.763,43.734 43.938,43.782 L43.938,43.909 C44.201,43.988 44.460,44.081 44.725,44.166 L44.725,44.293 L45.118,44.293 L45.118,44.426 C45.294,44.464 45.460,44.514 45.640,44.556 L45.640,44.678 L45.908,44.678 C45.950,44.776 45.989,44.855 46.028,44.938 C46.204,44.990 46.387,45.034 46.560,45.076 L46.827,45.339 L47.078,45.339 C47.127,45.422 47.167,45.503 47.220,45.596 C47.473,45.680 47.739,45.763 47.999,45.852 C48.041,45.938 48.091,46.024 48.132,46.110 L48.393,46.110 C48.435,46.194 48.477,46.276 48.530,46.368 L48.785,46.368 C48.833,46.455 48.866,46.538 48.922,46.629 L49.185,46.629 C49.224,46.712 49.268,46.797 49.311,46.892 C49.487,46.922 49.659,46.972 49.838,47.018 C49.922,47.149 50.009,47.285 50.099,47.402 L50.355,47.402 L50.355,47.542 C50.664,47.778 50.849,48.057 51.277,48.181 L51.277,48.435 C51.536,48.656 51.797,48.865 52.056,49.084 L52.056,49.211 L52.323,49.211 C52.417,49.339 52.497,49.468 52.584,49.604 L52.846,49.604 L52.846,49.725 C53.011,49.862 53.098,49.822 53.239,49.989 C53.726,49.952 54.200,49.908 54.677,49.862 C54.854,49.648 55.037,49.428 55.204,49.211 L55.338,49.211 L55.338,48.952 C55.470,48.865 55.598,48.785 55.726,48.691 L55.726,48.435 C55.860,48.349 55.987,48.263 56.116,48.181 L56.116,47.919 C56.205,47.876 56.302,47.832 56.389,47.796 C56.435,47.666 56.476,47.542 56.516,47.402 L56.645,47.402 L56.645,47.149 C56.740,47.101 56.825,47.055 56.910,47.018 L56.910,46.760 C56.999,46.712 57.084,46.673 57.165,46.629 L57.165,46.368 C57.260,46.328 57.348,46.276 57.430,46.240 C57.477,46.061 57.519,45.890 57.562,45.717 C58.108,44.848 58.624,43.909 58.741,42.617 C58.426,42.447 58.186,42.231 58.088,41.837 L57.822,41.837 L57.822,41.580 C57.373,41.465 57.075,41.081 56.781,40.806 C56.740,40.719 56.691,40.632 56.645,40.549 L56.389,40.549 C56.302,40.416 56.205,40.292 56.116,40.158 L55.860,40.158 C55.726,39.986 55.598,39.809 55.470,39.637 L55.204,39.637 C55.124,39.507 55.037,39.375 54.945,39.258 L54.677,39.258 C54.639,39.166 54.598,39.080 54.555,38.990 C54.375,38.947 54.200,38.910 54.031,38.859 L54.031,38.730 C53.891,38.688 53.767,38.645 53.637,38.605 C53.587,38.517 53.544,38.424 53.499,38.342 L53.107,38.342 L53.107,38.212 L52.719,38.212 L52.719,38.086 C52.548,38.050 52.369,37.994 52.206,37.960 L52.206,37.832 L51.928,37.832 L51.928,37.700 L51.536,37.700 L51.536,37.572 L51.277,37.572 L51.277,37.444 C51.017,37.355 50.757,37.271 50.484,37.176 L50.484,37.049 L50.099,37.049 L50.099,36.921 C49.551,36.711 48.841,36.681 48.132,36.667 C47.903,37.019 47.558,37.074 47.220,37.308 C47.167,37.405 47.127,37.483 47.078,37.572 C46.770,37.852 46.342,38.357 45.908,38.467 M37.524,32.910 L37.524,33.033 C37.259,33.083 36.997,33.133 36.732,33.172 L36.732,33.294 L36.477,33.294 L36.477,33.424 L36.212,33.424 C36.166,33.520 36.121,33.600 36.082,33.682 L35.823,33.682 C35.777,33.777 35.729,33.854 35.689,33.949 C35.425,34.165 35.161,34.380 34.898,34.593 L34.898,34.847 C34.811,34.894 34.727,34.934 34.640,34.986 L34.640,35.246 C34.509,35.324 34.384,35.408 34.243,35.503 L34.243,35.752 L34.111,35.752 L34.111,36.019 C34.033,36.059 33.943,36.099 33.850,36.154 L33.850,36.404 L33.591,36.667 L33.591,36.921 L33.460,36.921 L33.460,37.176 C33.376,37.221 33.289,37.271 33.196,37.308 L33.196,37.572 L33.061,37.572 C33.028,37.743 32.986,37.918 32.927,38.086 L32.810,38.086 C32.716,38.517 32.635,38.947 32.547,39.375 L32.411,39.375 C32.360,39.553 32.329,39.728 32.287,39.894 L32.149,39.894 C32.111,40.158 32.065,40.416 32.018,40.679 L31.890,40.679 C31.728,41.199 32.074,41.580 32.149,41.965 C32.556,42.121 33.260,42.100 33.850,42.096 C34.085,42.307 34.727,42.231 35.161,42.231 C36.265,42.231 37.262,42.041 38.040,41.707 C38.129,41.580 38.221,41.455 38.302,41.319 L38.439,41.319 C38.520,41.063 38.612,40.806 38.703,40.549 C38.790,40.504 38.872,40.454 38.965,40.416 C39.006,40.245 39.050,40.074 39.091,39.894 C39.180,39.852 39.268,39.809 39.355,39.772 C39.441,39.507 39.531,39.258 39.612,38.990 L39.746,38.990 C39.791,38.859 39.835,38.730 39.882,38.605 C39.967,38.563 40.058,38.517 40.143,38.467 C40.183,38.297 40.230,38.130 40.270,37.960 C40.363,37.918 40.444,37.872 40.535,37.832 L40.535,37.572 L40.665,37.572 C40.714,37.444 40.752,37.308 40.795,37.176 C40.883,37.139 40.967,37.099 41.060,37.049 L41.060,36.792 C41.200,36.709 41.326,36.616 41.446,36.536 L41.446,36.275 C41.627,36.154 41.802,36.019 41.982,35.897 L41.982,35.628 C42.066,35.583 42.149,35.536 42.237,35.503 L42.237,35.364 C42.456,35.199 42.676,35.024 42.890,34.847 L42.890,34.079 C41.326,33.214 39.994,32.926 37.524,32.910 M66.743,31.742 C66.656,31.893 66.507,31.950 66.465,32.002 L66.465,32.259 L66.340,32.259 C66.250,33.210 66.169,34.165 66.079,35.108 C65.799,36.041 65.568,37.176 65.298,38.086 L65.298,38.859 L65.157,38.859 L65.157,39.637 L65.033,39.637 L65.033,40.806 L64.898,40.806 L64.898,40.934 L65.033,40.934 L65.033,42.231 L65.157,42.231 C65.205,42.404 65.257,42.576 65.298,42.736 C65.379,42.785 65.468,42.832 65.553,42.872 L65.553,43.132 C65.640,43.173 65.731,43.219 65.821,43.262 L65.821,43.527 L66.079,43.782 L66.079,44.037 L66.208,44.037 L66.208,44.293 C66.294,44.342 66.381,44.383 66.465,44.426 C66.558,44.678 66.642,44.938 66.743,45.199 C66.823,45.246 66.913,45.294 66.998,45.339 C67.045,45.503 67.086,45.680 67.128,45.852 C67.213,45.890 67.309,45.938 67.388,45.975 L67.388,46.240 C67.523,46.328 67.655,46.416 67.786,46.493 L67.786,46.760 C67.839,46.838 67.949,46.850 68.038,47.018 C68.311,46.946 68.163,47.033 68.311,46.892 C69.210,46.658 69.076,45.658 69.349,44.813 L69.483,44.813 L69.483,44.293 L69.615,44.293 L69.615,43.388 C69.943,42.262 69.875,40.719 69.875,39.258 L69.875,37.572 L69.744,37.572 L69.744,37.049 L69.615,37.049 L69.615,36.792 L69.483,36.792 C69.440,36.536 69.399,36.275 69.349,36.019 L69.226,36.019 C69.141,35.464 69.050,34.894 68.959,34.331 L68.825,34.331 C68.783,34.165 68.747,33.987 68.703,33.815 L68.571,33.815 L68.571,33.555 C68.481,33.520 68.399,33.472 68.311,33.424 L68.311,33.172 C68.224,33.133 68.131,33.083 68.038,33.033 L68.038,32.781 L67.907,32.781 L67.907,32.523 C67.823,32.480 67.739,32.436 67.655,32.390 C67.333,31.926 67.542,31.790 66.743,31.742 M54.161,32.655 C54.293,32.694 54.426,32.740 54.555,32.781 L54.555,32.910 C54.677,32.950 54.811,32.996 54.945,33.033 C54.986,33.133 55.037,33.210 55.073,33.294 L55.338,33.294 C55.383,33.383 55.424,33.472 55.470,33.555 C55.726,33.648 55.987,33.728 56.259,33.815 C56.302,33.901 56.340,33.987 56.389,34.079 L56.781,34.079 L56.781,34.206 L57.036,34.206 L57.036,34.331 L57.430,34.331 C57.477,34.415 57.519,34.507 57.562,34.593 L57.822,34.593 C57.871,34.679 57.916,34.768 57.953,34.847 L58.221,34.847 C58.314,34.986 58.393,35.108 58.478,35.246 C58.741,35.464 59.002,35.669 59.273,35.897 C59.362,36.019 59.443,36.154 59.532,36.275 L59.780,36.275 C59.836,36.359 59.874,36.455 59.921,36.536 L60.184,36.536 L60.184,36.667 L61.231,36.667 C61.315,36.536 61.408,36.404 61.497,36.275 L61.622,36.275 L61.622,36.019 L61.754,36.019 C61.799,35.839 61.850,35.669 61.887,35.503 L62.018,35.503 C62.065,35.246 62.103,34.986 62.149,34.713 L62.277,34.713 C62.457,33.728 62.624,32.740 62.800,31.742 L62.934,31.742 L62.934,31.228 L63.066,31.228 L63.066,30.972 L63.198,30.972 L63.198,30.578 L63.325,30.578 L63.325,30.189 L63.458,30.189 L63.458,29.804 L63.587,29.804 L63.587,29.419 L63.713,29.419 C63.763,28.599 63.809,27.777 63.847,26.962 C63.499,26.752 63.626,26.638 63.066,26.572 L63.066,26.697 L62.671,26.697 L62.671,26.826 L62.415,26.826 L62.415,26.962 L62.149,26.962 L62.149,27.081 L61.887,27.081 L61.887,27.212 L61.622,27.212 L61.622,27.350 L61.231,27.350 L61.231,27.479 L60.973,27.479 L60.973,27.603 C60.708,27.688 60.446,27.777 60.184,27.868 L60.184,27.998 L59.780,27.998 L59.780,28.120 L59.532,28.120 L59.532,28.247 L59.273,28.247 L59.273,28.386 L59.002,28.386 L59.002,28.511 L58.608,28.511 L58.608,28.643 C58.351,28.720 58.088,28.812 57.822,28.894 L57.822,29.031 L57.562,29.031 C57.430,29.198 57.304,29.371 57.165,29.548 L56.910,29.548 C56.872,29.631 56.825,29.727 56.781,29.804 C56.035,30.283 54.668,30.691 54.426,31.615 C54.181,31.842 54.161,32.188 54.161,32.655 M58.608,24.239 C58.088,24.074 57.562,23.895 57.036,23.724 L53.239,23.724 C52.099,23.724 51.329,23.972 50.484,24.239 L49.838,24.239 L49.838,24.367 L49.311,24.367 L49.311,24.501 L48.785,24.501 L48.785,24.628 L48.259,24.628 L48.259,24.764 L47.739,24.764 C46.522,25.233 45.294,25.710 44.075,26.182 C44.033,26.267 43.984,26.356 43.938,26.436 C43.763,26.484 43.592,26.528 43.416,26.572 C43.368,26.663 43.328,26.741 43.281,26.826 L43.022,26.826 C42.982,26.917 42.929,27.001 42.890,27.081 L42.632,27.081 C42.505,27.257 42.369,27.429 42.237,27.603 L41.982,27.603 C41.930,27.688 41.890,27.777 41.841,27.868 C41.537,28.120 41.232,28.386 40.924,28.643 C40.795,28.850 40.806,29.198 40.795,29.548 C40.948,29.656 40.809,29.529 40.924,29.677 C41.493,29.760 42.066,29.846 42.632,29.944 L42.632,29.804 L44.075,29.804 L44.075,29.944 L45.249,29.944 C45.482,29.955 45.511,30.061 45.511,30.061 C45.799,30.117 45.905,29.944 45.905,29.944 L47.349,29.944 L47.349,29.804 L47.869,29.804 L47.869,29.677 L48.259,29.677 L48.259,29.548 L48.662,29.548 L48.662,29.419 L49.053,29.419 L49.053,29.287 C49.224,29.236 49.395,29.198 49.578,29.156 L49.578,29.031 L49.838,29.031 C49.883,28.939 49.922,28.854 49.965,28.771 C50.149,28.720 50.320,28.684 50.484,28.643 C50.620,28.472 50.757,28.291 50.881,28.120 L51.147,28.120 C51.193,28.040 51.237,27.949 51.277,27.868 C51.406,27.819 51.536,27.777 51.672,27.731 L51.672,27.603 L51.928,27.603 C51.981,27.520 52.027,27.429 52.056,27.350 L52.323,27.350 L52.584,27.081 L52.846,27.081 L52.846,26.962 L53.107,26.962 L53.107,26.826 L53.366,26.826 L53.366,26.697 L53.637,26.697 L53.637,26.572 C53.891,26.484 54.161,26.389 54.426,26.310 L54.426,26.182 L54.811,26.182 L54.811,26.054 C54.986,26.005 55.166,25.963 55.338,25.925 L55.338,25.796 C55.778,25.662 56.205,25.535 56.645,25.405 L56.645,25.279 L56.910,25.279 L56.910,25.145 C57.430,24.968 57.953,24.800 58.478,24.628 C58.523,24.501 58.569,24.367 58.608,24.239 M69.226,28.511 L69.226,28.771 C69.386,28.908 69.356,29.004 69.483,29.156 L69.615,29.156 L69.615,29.419 C69.715,29.535 70.438,29.887 70.662,29.944 C70.791,30.324 70.924,30.712 71.064,31.098 L71.064,31.615 L71.188,31.615 C71.235,31.790 71.270,31.959 71.313,32.131 L71.457,32.131 L71.457,33.294 L71.573,33.294 L71.573,33.682 L71.717,33.682 C71.753,33.854 71.795,34.029 71.843,34.206 L71.977,34.206 L71.977,34.464 L72.111,34.464 C72.193,34.847 72.279,35.246 72.375,35.628 L72.494,35.628 C72.549,35.801 72.588,35.973 72.628,36.154 L72.755,36.154 L72.755,36.667 L72.892,36.667 L72.892,37.049 L73.020,37.049 C73.072,37.483 73.114,37.918 73.153,38.342 L73.281,38.342 L73.281,38.859 L73.416,38.859 L73.416,39.258 L73.546,39.258 C73.590,39.772 73.634,40.292 73.679,40.806 L73.805,40.806 L73.805,42.736 L73.937,42.736 L73.937,42.872 L73.805,42.872 L73.805,42.999 L73.937,42.999 C73.997,43.333 73.805,43.388 73.805,43.388 L73.805,45.717 L73.679,45.717 C73.634,46.760 73.590,47.796 73.546,48.825 L73.416,48.825 L73.416,49.725 L73.281,49.725 L73.281,49.989 C73.199,50.033 73.114,50.078 73.020,50.120 C72.973,50.332 72.941,50.549 72.892,50.769 L72.755,50.769 L72.755,51.029 L72.628,51.029 L72.628,51.412 L72.494,51.412 C72.418,51.890 72.320,52.353 72.234,52.840 L72.111,52.840 L72.111,53.097 C72.026,53.135 71.926,53.181 71.843,53.230 L71.843,53.480 L71.717,53.480 C71.627,53.748 71.538,53.998 71.457,54.263 L71.313,54.263 C71.235,54.647 71.148,55.035 71.064,55.424 L70.924,55.424 L70.924,55.940 L70.791,55.940 C70.753,56.161 70.710,56.373 70.662,56.589 L70.404,56.589 C70.161,57.810 69.262,58.267 68.433,58.917 C68.347,59.087 68.271,59.267 68.181,59.432 C67.997,59.566 67.823,59.694 67.655,59.821 L67.655,60.082 C67.523,60.168 67.388,60.261 67.260,60.338 L67.260,60.603 C66.913,60.913 66.558,61.202 66.208,61.507 L66.208,61.762 C65.900,62.020 65.602,62.285 65.298,62.536 C65.205,62.672 65.117,62.796 65.033,62.937 L64.769,62.937 C64.726,63.017 64.675,63.103 64.637,63.194 C64.504,63.231 64.379,63.279 64.243,63.322 L64.243,63.444 L63.986,63.444 C63.763,63.709 63.548,63.957 63.325,64.219 L63.066,64.219 C63.025,64.310 62.987,64.394 62.934,64.483 L62.671,64.483 C62.624,64.570 62.586,64.659 62.538,64.745 C62.364,64.789 62.197,64.829 62.018,64.873 L62.018,65.002 C61.754,65.090 61.497,65.167 61.231,65.263 L61.231,65.397 L60.836,65.397 L60.836,65.519 C60.660,65.567 60.497,65.599 60.316,65.646 L60.316,65.779 C60.092,65.821 59.874,65.862 59.663,65.908 L59.663,66.037 C59.403,66.080 59.141,66.120 58.877,66.163 L58.877,66.296 L58.608,66.296 L58.608,66.425 C58.351,66.512 58.088,66.585 57.822,66.685 L57.822,66.810 L57.304,66.810 L57.304,66.943 L56.645,66.943 L56.645,67.080 L55.987,67.080 L55.987,67.202 L55.470,67.202 L55.470,67.328 L54.811,67.328 L54.811,67.460 C54.426,67.567 53.821,67.380 53.637,67.328 L51.672,67.328 L51.672,67.460 C50.965,67.503 50.271,67.538 49.578,67.589 C48.051,68.006 45.983,67.862 44.591,67.460 C44.163,67.416 43.722,67.374 43.281,67.328 L43.281,67.202 C43.022,67.118 42.764,67.020 42.505,66.943 L42.505,66.810 C41.802,66.444 41.026,66.349 40.795,65.519 L40.665,65.519 C40.714,65.263 40.752,65.002 40.795,64.745 L40.924,64.745 C40.883,64.570 40.836,64.394 40.795,64.219 C40.230,64.310 39.662,64.394 39.091,64.483 L39.091,64.352 L38.302,64.352 L38.302,64.219 L37.910,64.219 L37.910,64.090 L37.655,64.090 L37.655,63.957 L37.389,63.957 C37.342,63.877 37.306,63.798 37.259,63.709 L36.997,63.709 C36.952,63.620 36.911,63.536 36.863,63.444 L36.605,63.444 C36.561,63.364 36.522,63.279 36.477,63.194 L36.212,63.194 C35.999,63.034 35.500,62.202 35.425,61.897 C35.015,61.791 34.826,61.522 34.509,61.375 C33.986,61.202 33.460,61.038 32.927,60.854 L32.927,60.735 C32.853,60.688 32.753,60.651 32.672,60.603 L32.672,60.338 C32.590,60.300 32.505,60.261 32.411,60.220 L32.411,59.950 C32.233,59.821 32.065,59.694 31.890,59.566 L31.890,59.307 C31.676,59.135 31.446,58.958 31.231,58.792 L31.231,58.532 C31.057,58.404 30.885,58.275 30.713,58.151 L30.713,57.883 C30.620,57.843 30.535,57.801 30.449,57.755 C30.402,57.628 30.356,57.489 30.313,57.373 L30.187,57.373 L30.187,57.114 C30.056,57.025 29.920,56.939 29.793,56.846 L29.793,56.200 L29.658,56.200 L29.658,55.817 L29.530,55.817 L29.530,55.035 L29.402,55.035 L29.402,54.784 C29.313,54.736 29.223,54.691 29.135,54.647 C28.964,54.177 28.786,53.691 28.608,53.230 L28.351,53.230 C28.002,52.018 27.651,50.807 27.301,49.604 L27.168,49.604 L27.168,49.084 L27.039,49.084 L27.039,48.564 L26.912,48.564 L26.912,48.053 L26.781,48.053 L26.781,47.542 L26.649,47.542 L26.649,46.892 L26.516,46.892 L26.516,46.240 L26.389,46.240 L26.389,44.938 L26.251,44.938 C26.003,44.056 26.470,42.051 26.649,41.455 L26.649,40.292 C26.956,38.947 27.266,37.616 27.565,36.275 L27.688,36.275 C27.786,36.019 27.870,35.752 27.950,35.503 L28.085,35.503 L28.085,35.246 L28.216,35.246 L28.216,34.986 L28.351,34.986 L28.351,34.713 L28.484,34.713 L28.484,34.464 L28.740,34.206 L28.740,33.949 C28.835,33.901 28.920,33.854 29.005,33.815 C29.135,33.424 29.265,33.033 29.402,32.655 L29.530,32.655 L29.530,32.390 L29.658,32.390 C29.835,31.913 30.011,31.440 30.187,30.972 L30.449,30.972 C30.943,30.093 31.591,29.329 32.287,28.643 C32.547,28.425 32.810,28.211 33.061,27.998 L33.061,27.731 C33.240,27.603 33.412,27.479 33.591,27.350 L33.591,27.081 C33.986,26.741 34.384,26.389 34.766,26.054 C34.860,25.925 34.946,25.796 35.033,25.662 C35.205,25.618 35.385,25.579 35.557,25.535 C35.604,25.444 35.640,25.364 35.689,25.279 C35.858,25.233 36.029,25.194 36.212,25.145 C36.303,25.015 36.390,24.885 36.477,24.764 L36.732,24.764 C36.786,24.673 36.822,24.584 36.863,24.501 L37.129,24.501 C37.166,24.411 37.215,24.327 37.259,24.239 C37.436,24.196 37.602,24.158 37.785,24.114 L37.785,23.981 C37.910,23.935 38.040,23.895 38.176,23.849 C38.221,23.769 38.265,23.677 38.302,23.594 C38.479,23.553 38.660,23.505 38.831,23.467 C38.914,23.343 39.006,23.203 39.091,23.066 C39.355,22.983 39.612,22.909 39.882,22.819 C39.928,22.727 39.967,22.643 40.002,22.554 L40.270,22.554 L40.535,22.297 L40.795,22.297 L40.795,22.167 L41.060,22.167 C41.098,22.081 41.142,21.998 41.200,21.910 L41.577,21.910 C41.627,21.825 41.672,21.739 41.718,21.656 L42.109,21.656 L42.109,21.527 L42.369,21.527 L42.369,21.399 C42.587,21.350 42.802,21.312 43.022,21.259 L43.022,21.131 L43.552,21.131 L43.552,21.007 L43.938,21.007 L43.938,20.876 L44.591,20.876 L44.591,20.746 L45.249,20.746 L45.249,20.617 L45.770,20.617 L45.770,20.487 L46.300,20.487 L46.300,20.359 L50.881,20.359 C51.059,20.401 51.237,20.451 51.406,20.487 L51.406,20.359 L53.366,20.359 L53.366,20.233 C53.617,20.125 54.147,19.987 54.555,20.100 L54.555,20.233 L55.338,20.233 L55.338,20.359 L55.860,20.359 L55.860,20.487 L56.116,20.487 L56.116,20.617 L56.781,20.617 L56.781,20.746 L57.562,20.746 L57.562,20.876 L58.221,20.876 L58.221,21.007 L58.608,21.007 L58.608,21.131 L59.002,21.131 L59.002,21.259 C59.186,21.312 59.362,21.350 59.532,21.399 L59.532,21.527 L59.780,21.527 L59.780,21.656 C60.184,21.739 60.583,21.825 60.973,21.910 C61.408,22.475 61.850,23.039 62.277,23.594 C62.722,23.633 63.155,23.677 63.587,23.724 L63.587,23.849 L63.847,23.849 C63.941,23.981 64.026,24.114 64.120,24.239 L64.379,24.239 C64.467,24.367 64.551,24.501 64.637,24.628 L64.898,24.628 C64.987,24.764 65.074,24.885 65.157,25.015 C65.468,25.279 65.777,25.535 66.079,25.796 L66.079,26.054 C66.250,26.182 66.432,26.310 66.602,26.436 L66.602,26.697 L66.743,26.697 C66.823,26.826 66.913,26.962 66.998,27.081 L67.260,27.081 C67.309,27.177 67.345,27.257 67.388,27.350 L67.655,27.350 L67.655,27.479 L67.907,27.479 L68.181,27.731 L68.433,27.731 L68.433,27.868 C68.571,27.949 68.703,28.040 68.825,28.120 L68.825,28.247 L68.825,28.386 L68.959,28.386 L68.959,28.511 L69.226,28.511 Z"/>
<path fill-rule="evenodd"  fill="#fff"
 d="M239.892,84.206 C240.498,84.206 241.003,84.714 241.003,85.325 C241.003,85.944 240.498,86.449 239.892,86.449 L207.675,86.449 C207.062,86.449 206.564,85.944 206.564,85.325 C206.564,84.714 207.062,84.206 207.675,84.206 L220.161,84.206 L220.161,78.232 L211.325,78.232 C210.709,78.232 210.203,77.740 210.203,77.115 C210.203,76.504 210.709,75.998 211.325,75.998 L220.161,75.998 L220.161,71.586 L210.340,71.586 C209.756,71.586 209.284,71.115 209.284,70.526 C209.715,69.847 210.185,69.722 210.773,69.722 L214.705,69.635 C216.797,65.781 216.955,63.602 216.849,62.637 L208.525,62.637 L208.525,65.617 C208.525,68.269 208.276,74.821 206.957,79.042 C205.638,83.279 202.587,86.838 202.177,87.253 C201.757,87.671 200.856,87.756 200.528,87.419 C200.189,87.092 200.368,86.592 200.687,85.932 C201.027,85.267 201.757,83.605 203.248,78.883 C204.726,74.157 204.060,70.677 204.060,68.269 L204.060,52.606 C204.060,49.866 205.638,48.768 207.204,48.768 L236.373,48.768 C237.434,48.768 238.303,49.641 238.303,50.706 L238.303,55.223 C238.303,56.294 237.434,57.161 236.373,57.161 L208.764,57.161 L208.749,60.519 L239.269,60.519 C239.850,60.519 240.316,60.994 240.316,61.577 C240.316,62.163 239.850,62.637 239.269,62.637 L221.997,62.637 L218.635,68.848 L231.636,68.848 C230.352,67.161 228.940,65.339 228.699,65.056 C228.259,64.561 227.772,64.067 228.450,63.442 C229.199,62.756 229.806,63.442 230.613,63.936 C231.416,64.439 235.622,68.044 236.731,69.222 C237.849,70.407 238.842,72.271 237.289,73.326 C235.741,74.387 234.268,72.645 233.710,71.708 C233.602,71.543 233.385,71.229 233.101,70.840 L224.866,70.840 L224.866,75.998 L234.821,75.998 C235.428,75.998 235.934,76.504 235.934,77.115 C235.934,77.740 235.428,78.232 234.821,78.232 L224.866,78.232 L224.866,84.206 L239.892,84.206 ZM208.764,55.223 L234.091,55.223 L234.091,50.733 L208.764,50.733 L208.764,55.223 ZM195.699,50.865 L167.876,50.878 C166.773,50.878 166.148,51.570 166.148,52.687 L166.148,54.138 L192.035,54.138 C193.148,54.138 194.055,55.048 194.055,56.165 L194.055,61.138 C194.055,62.260 193.148,63.172 192.035,63.172 L181.478,63.172 L181.478,67.572 L195.537,67.572 C196.183,67.572 196.708,68.103 196.708,68.749 C196.708,69.400 196.183,69.934 195.537,69.934 L177.984,69.934 C178.015,70.641 178.021,71.792 177.886,73.138 L190.239,73.138 C191.169,73.138 193.827,73.390 193.513,75.752 C193.204,78.113 192.956,79.979 192.715,81.347 C192.465,82.714 191.537,87.008 187.330,87.008 L182.389,87.008 C182.389,87.008 180.900,87.192 180.900,85.888 C180.900,84.578 183.255,84.897 184.116,84.897 C185.914,84.897 187.855,84.075 188.078,81.782 C188.260,79.856 188.379,78.483 188.379,77.428 C188.379,76.376 188.514,75.502 186.713,75.502 L177.523,75.502 C177.102,77.460 176.344,79.555 174.969,81.290 C171.566,85.575 167.615,86.572 166.005,86.572 C165.018,86.572 164.395,86.449 164.525,85.451 C164.642,84.452 165.996,84.945 168.039,83.458 C169.592,82.338 173.116,79.419 173.428,75.565 C173.681,72.341 173.428,70.903 173.180,69.934 L165.320,69.934 C165.274,72.490 165.007,76.916 163.225,79.922 C160.189,85.018 158.153,87.192 157.098,85.821 C156.103,84.524 158.210,84.334 160.254,78.795 C161.302,75.953 161.616,71.151 161.616,68.418 L161.616,52.314 C161.616,49.742 163.053,48.290 165.608,48.290 L195.699,48.290 C196.411,48.290 196.983,48.870 196.983,49.582 C196.983,50.291 196.411,50.865 195.699,50.865 ZM165.324,67.572 L177.031,67.572 L177.031,63.172 L165.324,63.172 L165.324,67.572 ZM165.238,56.042 L165.238,61.266 L189.647,61.266 L189.647,56.042 L165.238,56.042 ZM150.624,57.079 L124.323,57.079 C123.676,57.079 123.147,56.543 123.147,55.893 C123.147,55.242 123.676,54.712 124.323,54.712 L150.624,54.712 C151.271,54.712 151.800,55.242 151.800,55.893 C151.800,56.543 151.271,57.079 150.624,57.079 ZM147.342,47.865 C147.993,47.865 148.519,48.397 148.519,49.049 C148.519,49.704 147.993,50.233 147.342,50.233 L127.598,50.233 C126.947,50.233 126.422,49.704 126.422,49.049 C126.422,48.397 126.947,47.865 127.598,47.865 L147.342,47.865 ZM145.421,26.854 L134.292,26.854 L134.292,38.532 C134.292,40.217 132.921,41.573 131.225,41.573 C129.533,41.573 128.164,40.217 128.164,38.532 L128.164,26.854 L117.038,26.854 C114.689,26.854 112.793,24.947 112.793,22.591 L112.793,12.299 C112.793,9.941 114.689,8.036 117.038,8.036 L128.164,8.036 L128.164,3.050 C128.164,1.363 129.533,0.002 131.225,0.002 C132.921,0.002 134.292,1.363 134.292,3.050 L134.292,8.036 L145.421,8.036 C147.762,8.036 149.662,9.941 149.662,12.299 L149.662,22.591 C149.662,24.947 147.762,26.854 145.421,26.854 ZM128.164,10.471 L117.704,10.471 L117.704,24.414 L128.164,24.414 L128.164,10.471 ZM144.740,10.471 L134.296,10.471 L134.296,24.414 L144.740,24.414 L144.740,10.471 ZM118.651,51.414 C119.710,47.625 120.204,45.831 123.352,46.096 C125.455,46.264 124.281,50.320 122.766,53.692 C121.973,55.481 121.001,56.656 121.001,56.656 L121.001,84.703 C121.001,86.141 120.671,87.997 118.699,87.997 C116.739,87.997 116.130,86.141 116.130,84.792 L116.130,63.241 C115.203,64.848 111.660,67.521 110.839,65.700 C109.997,63.835 112.179,64.004 115.541,58.171 C116.633,56.285 117.894,54.116 118.651,51.414 ZM126.379,60.873 L148.572,60.873 C149.212,60.873 149.743,61.406 149.743,62.062 C149.743,62.711 149.212,63.241 148.572,63.241 L126.379,63.241 C125.725,63.241 125.199,62.711 125.199,62.062 C125.199,61.406 125.725,60.873 126.379,60.873 ZM126.379,67.303 L148.572,67.303 C149.212,67.303 149.743,67.826 149.743,68.480 C149.743,69.134 149.212,69.667 148.572,69.667 L126.379,69.667 C125.725,69.667 125.199,69.134 125.199,68.480 C125.199,67.826 125.725,67.303 126.379,67.303 ZM127.583,74.017 L147.486,74.017 C148.603,74.017 149.509,74.930 149.509,76.050 L149.509,84.513 C149.509,85.644 148.603,86.549 147.486,86.549 L127.583,86.549 C126.467,86.549 125.554,85.644 125.554,84.513 L125.554,76.050 C125.554,74.930 126.467,74.017 127.583,74.017 ZM130.058,84.466 L145.016,84.466 L145.016,76.096 L130.058,76.096 L130.058,84.466 Z"/>
<path fill-rule="evenodd"  fill="#fff"
 d="M161.050,93.197 C160.647,93.210 160.204,93.220 159.694,93.220 L158.433,93.220 C157.967,93.220 157.505,93.210 157.046,93.184 C156.595,93.164 156.264,93.128 156.077,93.089 C156.094,93.197 156.121,93.384 156.130,93.672 C156.142,93.945 156.157,94.445 156.185,95.167 C156.192,96.286 156.210,97.557 156.210,98.984 C156.210,100.402 156.192,101.678 156.185,102.817 C156.157,103.531 156.142,104.033 156.130,104.305 C156.121,104.589 156.094,104.780 156.077,104.886 C156.316,104.850 156.653,104.819 157.109,104.791 C157.568,104.764 158.005,104.744 158.433,104.744 L159.694,104.744 C160.105,104.744 160.547,104.764 161.013,104.791 C161.494,104.819 161.852,104.850 162.076,104.886 C162.041,104.718 162.031,104.523 162.031,104.305 C162.031,104.089 162.041,103.895 162.076,103.720 C161.862,103.767 161.476,103.798 160.935,103.837 C160.384,103.871 159.858,103.888 159.359,103.888 L158.800,103.888 L157.682,103.875 C157.648,102.539 157.636,100.971 157.639,99.156 L159.113,99.167 C159.602,99.167 160.105,99.188 160.614,99.218 C161.128,99.231 161.476,99.260 161.672,99.300 C161.636,99.137 161.620,98.951 161.620,98.747 C161.620,98.530 161.636,98.335 161.672,98.169 C161.476,98.208 161.128,98.242 160.614,98.265 C160.105,98.293 159.602,98.306 159.113,98.306 L157.636,98.314 L157.682,94.110 C158.126,94.088 158.605,94.087 159.113,94.088 L159.694,94.088 C160.147,94.088 160.614,94.098 161.085,94.132 C161.557,94.166 161.892,94.205 162.076,94.256 C162.041,94.088 162.031,93.889 162.031,93.681 C162.031,93.452 162.041,93.260 162.076,93.089 C161.793,93.138 161.448,93.177 161.050,93.197 M147.326,103.837 C146.783,103.871 146.255,103.888 145.751,103.888 L145.146,103.888 C144.744,103.895 144.359,103.888 143.987,103.875 C143.974,102.508 143.956,100.894 143.942,99.029 C143.942,97.629 143.956,96.379 143.977,95.269 C143.997,94.542 144.013,94.044 144.027,93.775 C144.043,93.497 144.063,93.292 144.078,93.197 C143.834,93.217 143.553,93.220 143.236,93.220 C142.916,93.220 142.627,93.217 142.379,93.197 C142.402,93.308 142.420,93.501 142.439,93.780 C142.445,94.057 142.467,94.555 142.489,95.277 C142.507,96.385 142.514,97.648 142.514,99.041 C142.514,100.449 142.507,101.700 142.489,102.817 C142.467,103.534 142.445,104.033 142.439,104.305 C142.420,104.589 142.402,104.780 142.379,104.886 C142.612,104.850 142.947,104.819 143.402,104.791 C143.867,104.764 144.308,104.744 144.749,104.744 L146.083,104.744 C146.483,104.744 146.922,104.764 147.399,104.791 C147.871,104.819 148.231,104.850 148.474,104.886 C148.432,104.718 148.421,104.523 148.421,104.305 C148.421,104.089 148.432,103.895 148.474,103.720 C148.252,103.767 147.871,103.798 147.326,103.837 M167.677,98.035 C166.869,97.759 166.283,97.429 165.912,97.064 C165.538,96.700 165.353,96.253 165.353,95.728 C165.353,95.139 165.555,94.666 165.931,94.283 C166.312,93.915 166.815,93.724 167.422,93.724 C167.844,93.724 168.244,93.841 168.592,94.057 C168.961,94.283 169.245,94.590 169.468,94.996 L169.706,95.028 C169.759,94.775 169.812,94.563 169.855,94.379 C169.908,94.208 169.973,93.996 170.050,93.756 C169.684,93.505 169.272,93.326 168.829,93.197 C168.392,93.068 167.909,93.004 167.415,93.004 C166.490,93.004 165.703,93.308 165.056,93.915 C164.420,94.527 164.100,95.269 164.100,96.145 C164.100,96.971 164.320,97.623 164.751,98.117 C165.192,98.618 165.939,99.053 166.976,99.409 C167.785,99.698 168.392,100.038 168.753,100.421 C169.135,100.813 169.312,101.295 169.312,101.872 C169.312,102.565 169.096,103.142 168.650,103.585 C168.209,104.033 167.636,104.255 166.943,104.255 C166.432,104.255 165.946,104.108 165.484,103.825 C165.014,103.540 164.648,103.164 164.407,102.709 L164.149,102.778 C164.123,103.003 164.086,103.200 164.050,103.357 C164.012,103.518 163.971,103.711 163.914,103.937 C164.212,104.276 164.608,104.537 165.102,104.710 C165.589,104.883 166.160,104.971 166.815,104.971 C167.844,104.971 168.716,104.620 169.444,103.925 C170.162,103.221 170.514,102.369 170.514,101.356 C170.514,100.516 170.308,99.840 169.865,99.339 C169.433,98.833 168.703,98.391 167.677,98.035 M127.651,93.197 C127.250,93.210 126.803,93.220 126.298,93.220 L125.037,93.220 C124.569,93.220 124.104,93.210 123.650,93.184 C123.197,93.164 122.866,93.128 122.677,93.089 C122.699,93.197 122.714,93.384 122.724,93.672 C122.743,93.945 122.767,94.445 122.780,95.167 C122.804,96.286 122.813,97.557 122.813,98.984 C122.813,100.402 122.804,101.678 122.780,102.817 C122.767,103.531 122.743,104.033 122.724,104.305 C122.714,104.589 122.699,104.780 122.677,104.886 C122.908,104.850 123.256,104.819 123.711,104.791 C124.170,104.764 124.608,104.744 125.037,104.744 L126.298,104.744 C126.695,104.744 127.137,104.764 127.619,104.791 C128.089,104.819 128.445,104.850 128.682,104.886 C128.644,104.718 128.630,104.523 128.630,104.305 C128.630,104.089 128.644,103.895 128.682,103.720 C128.455,103.767 128.076,103.798 127.532,103.837 C126.988,103.871 126.455,103.888 125.955,103.888 L125.401,103.888 L124.286,103.875 C124.246,102.539 124.235,100.971 124.238,99.156 L125.711,99.167 C126.204,99.167 126.706,99.188 127.218,99.218 C127.727,99.231 128.076,99.260 128.270,99.300 C128.231,99.137 128.217,98.951 128.217,98.747 C128.217,98.530 128.231,98.335 128.270,98.169 C128.076,98.208 127.727,98.242 127.218,98.265 C126.706,98.293 126.204,98.306 125.711,98.306 L124.235,98.314 L124.286,94.110 C124.730,94.088 125.205,94.087 125.711,94.088 L126.298,94.088 C126.745,94.088 127.208,94.098 127.685,94.132 C128.164,94.166 128.491,94.205 128.682,94.256 C128.644,94.088 128.630,93.889 128.630,93.681 C128.630,93.452 128.644,93.260 128.682,93.089 C128.387,93.138 128.051,93.177 127.651,93.197 M134.935,99.464 C134.353,99.474 133.816,99.442 133.323,99.364 L133.501,98.937 C134.022,97.713 134.285,97.096 134.285,97.096 C134.285,97.096 134.506,96.601 134.962,95.606 L134.985,95.606 L136.413,98.951 L136.571,99.345 C136.065,99.415 135.519,99.454 134.935,99.464 M137.927,99.019 C136.938,96.710 136.129,94.779 135.528,93.220 L135.304,93.220 L135.115,93.220 C134.506,94.799 133.695,96.734 132.662,99.036 C132.059,100.393 131.493,101.621 130.975,102.709 C130.619,103.456 130.369,103.967 130.233,104.240 C130.084,104.523 129.994,104.705 129.932,104.780 C130.128,104.758 130.346,104.744 130.590,104.744 C130.838,104.744 131.063,104.758 131.256,104.780 C131.334,104.441 131.412,104.138 131.511,103.862 C131.598,103.585 131.746,103.200 131.948,102.697 C132.212,101.996 132.525,101.247 132.871,100.449 C133.473,100.319 134.171,100.270 134.953,100.304 C135.722,100.313 136.413,100.371 137.031,100.449 L137.957,102.697 C138.176,103.232 138.340,103.647 138.425,103.925 C138.523,104.200 138.606,104.490 138.676,104.780 C138.949,104.758 139.250,104.744 139.586,104.744 C139.924,104.744 140.237,104.758 140.505,104.780 L139.539,102.709 C139.049,101.615 138.511,100.387 137.927,99.019 M234.120,102.778 C233.307,103.759 232.219,104.255 230.863,104.255 C229.514,104.255 228.430,103.785 227.621,102.851 C226.806,101.927 226.403,100.675 226.403,99.130 C226.403,97.491 226.806,96.174 227.621,95.200 C228.430,94.221 229.514,93.724 230.863,93.724 C232.219,93.724 233.307,94.192 234.120,95.127 C234.929,96.049 235.327,97.301 235.327,98.846 C235.327,100.485 234.929,101.800 234.120,102.778 M230.951,93.004 C229.098,93.004 227.586,93.579 226.438,94.717 C225.289,95.858 224.708,97.346 224.708,99.188 C224.708,100.904 225.266,102.305 226.397,103.369 C227.515,104.441 228.976,104.971 230.773,104.971 C232.634,104.971 234.137,104.402 235.291,103.266 C236.444,102.119 237.026,100.634 237.026,98.794 C237.026,97.070 236.459,95.673 235.352,94.605 C234.235,93.539 232.764,93.004 230.951,93.004 M114.383,98.365 L114.383,94.004 C114.798,93.972 115.258,93.955 115.766,93.945 C116.626,93.945 117.288,94.128 117.757,94.470 C118.213,94.823 118.440,95.334 118.440,95.994 C118.440,96.703 118.140,97.271 117.539,97.699 C116.942,98.132 116.145,98.335 115.136,98.335 C114.876,98.335 114.626,98.335 114.383,98.365 M119.569,102.709 L118.675,101.576 C117.897,100.598 117.223,99.731 116.674,98.972 C117.470,98.836 118.160,98.587 118.738,98.208 C119.635,97.623 120.082,96.868 120.082,95.928 C120.082,95.012 119.775,94.341 119.176,93.879 C118.556,93.425 117.649,93.197 116.423,93.197 C116.233,93.197 116.008,93.201 115.760,93.207 C115.505,93.207 115.227,93.210 114.920,93.220 C114.729,93.241 114.463,93.241 114.115,93.233 C113.764,93.220 113.334,93.210 112.821,93.197 C112.839,93.292 112.860,93.497 112.871,93.775 C112.890,94.044 112.907,94.542 112.929,95.269 C112.941,96.373 112.953,97.601 112.953,98.985 C112.953,100.358 112.941,101.589 112.929,102.709 C112.907,103.427 112.890,103.931 112.880,104.200 C112.860,104.480 112.839,104.673 112.821,104.780 C113.069,104.758 113.354,104.744 113.680,104.744 C113.1000,104.744 114.289,104.758 114.542,104.780 C114.519,104.673 114.490,104.474 114.488,104.195 C114.472,103.925 114.454,103.427 114.432,102.709 C114.410,101.628 114.398,100.421 114.398,99.085 L114.934,99.085 C115.505,99.762 116.145,100.571 116.860,101.500 L117.790,102.709 C118.228,103.266 118.545,103.676 118.738,103.943 C118.934,104.223 119.095,104.497 119.236,104.780 C119.538,104.758 119.880,104.744 120.268,104.744 C120.661,104.744 121.003,104.758 121.311,104.780 C121.246,104.718 121.094,104.550 120.864,104.276 C120.634,103.995 120.193,103.471 119.569,102.709 M240.722,103.282 C240.533,103.102 240.310,103.003 240.033,103.003 C239.769,103.003 239.536,103.102 239.359,103.282 C239.172,103.471 239.085,103.704 239.085,103.970 C239.085,104.255 239.172,104.480 239.359,104.671 C239.536,104.850 239.769,104.943 240.033,104.943 C240.310,104.943 240.533,104.850 240.722,104.671 C240.906,104.480 241.000,104.255 241.000,103.970 C241.000,103.704 240.906,103.471 240.722,103.282 M196.805,93.184 C196.037,93.207 195.443,93.220 194.998,93.220 L194.544,93.220 L194.094,93.220 C193.689,93.220 193.108,93.207 192.349,93.184 C191.584,93.156 190.898,93.128 190.293,93.089 C190.329,93.255 190.342,93.437 190.342,93.659 C190.342,93.872 190.329,94.063 190.293,94.221 C190.480,94.186 190.852,94.158 191.389,94.128 C191.933,94.098 192.478,94.088 193.013,94.088 L193.897,94.076 C193.933,95.452 193.951,97.091 193.951,98.997 C193.951,100.371 193.938,101.602 193.914,102.709 C193.903,103.427 193.888,103.925 193.872,104.190 C193.853,104.474 193.832,104.673 193.814,104.780 C194.065,104.758 194.353,104.744 194.676,104.744 C194.998,104.744 195.286,104.758 195.533,104.780 C195.509,104.673 195.491,104.474 195.477,104.195 C195.464,103.925 195.448,103.427 195.428,102.709 C195.407,101.615 195.391,100.374 195.391,98.992 C195.391,97.091 195.421,95.452 195.457,94.088 L196.092,94.088 C196.611,94.088 197.145,94.098 197.697,94.128 C198.233,94.158 198.612,94.186 198.811,94.221 C198.778,94.063 198.750,93.872 198.750,93.659 C198.750,93.437 198.778,93.255 198.811,93.089 C198.233,93.128 197.568,93.156 196.805,93.184 M219.809,93.724 C220.377,93.724 220.927,93.850 221.487,94.110 C222.045,94.365 222.506,94.710 222.867,95.139 L223.140,95.139 C223.190,94.870 223.245,94.631 223.304,94.445 C223.364,94.247 223.425,94.017 223.511,93.747 C222.918,93.497 222.323,93.302 221.724,93.180 C221.137,93.068 220.481,93.004 219.790,93.004 C217.961,93.004 216.486,93.579 215.356,94.710 C214.224,95.858 213.661,97.340 213.661,99.188 C213.661,100.904 214.190,102.299 215.255,103.369 C216.325,104.441 217.705,104.971 219.423,104.971 C220.160,104.971 220.827,104.894 221.429,104.744 C222.032,104.599 222.609,104.371 223.180,104.049 C223.197,103.862 223.216,103.697 223.233,103.542 C223.257,103.407 223.280,103.236 223.327,103.054 L223.180,102.893 C222.770,103.307 222.252,103.640 221.629,103.885 C221.015,104.122 220.361,104.255 219.709,104.255 C218.449,104.255 217.412,103.767 216.587,102.800 C215.773,101.838 215.356,100.617 215.356,99.133 C215.356,97.495 215.749,96.182 216.568,95.200 C217.383,94.221 218.458,93.724 219.809,93.724 M184.957,99.464 C184.373,99.474 183.833,99.442 183.345,99.364 L183.518,98.937 C184.041,97.713 184.307,97.096 184.307,97.096 C184.307,97.096 184.528,96.601 184.981,95.606 L185.002,95.606 L186.435,98.951 L186.590,99.345 C186.090,99.415 185.545,99.454 184.957,99.464 M187.951,99.019 C186.959,96.710 186.163,94.779 185.545,93.220 L185.335,93.220 L185.127,93.220 C184.528,94.799 183.713,96.734 182.687,99.036 C182.088,100.393 181.519,101.621 181.007,102.709 C180.638,103.456 180.389,103.967 180.252,104.240 C180.110,104.523 180.008,104.705 179.964,104.780 C180.153,104.758 180.369,104.744 180.610,104.744 C180.870,104.744 181.088,104.758 181.276,104.780 C181.356,104.441 181.440,104.138 181.537,103.862 C181.619,103.585 181.774,103.200 181.972,102.697 C182.237,101.996 182.544,101.247 182.898,100.449 C183.492,100.319 184.193,100.270 184.974,100.304 C185.752,100.313 186.441,100.371 187.050,100.449 L187.974,102.697 C188.203,103.232 188.362,103.647 188.452,103.925 C188.546,104.200 188.630,104.490 188.701,104.780 C188.968,104.758 189.271,104.744 189.611,104.744 C189.942,104.744 190.259,104.758 190.522,104.780 L189.558,102.709 C189.064,101.615 188.533,100.387 187.951,99.019 M180.205,93.659 C180.205,93.437 180.226,93.255 180.259,93.089 C179.688,93.128 179.021,93.156 178.256,93.184 C177.499,93.207 176.896,93.220 176.442,93.220 L176.001,93.220 L175.547,93.220 C175.131,93.220 174.555,93.207 173.789,93.184 C173.022,93.156 172.349,93.128 171.740,93.089 C171.777,93.255 171.799,93.437 171.799,93.659 C171.799,93.872 171.777,94.063 171.740,94.221 C171.924,94.186 172.293,94.158 172.842,94.128 C173.379,94.098 173.926,94.088 174.467,94.088 L175.342,94.076 C175.384,95.452 175.407,97.091 175.398,98.997 C175.398,100.371 175.384,101.602 175.371,102.709 C175.350,103.427 175.335,103.925 175.319,104.190 C175.306,104.474 175.283,104.673 175.264,104.780 C175.514,104.758 175.807,104.744 176.120,104.744 C176.442,104.744 176.729,104.758 176.989,104.780 C176.960,104.673 176.937,104.474 176.925,104.195 C176.916,103.925 176.896,103.427 176.869,102.709 C176.847,101.615 176.847,100.374 176.847,98.992 C176.847,97.091 176.869,95.452 176.904,94.088 L177.531,94.088 C178.061,94.088 178.600,94.098 179.142,94.128 C179.694,94.158 180.060,94.186 180.259,94.221 C180.226,94.063 180.205,93.872 180.205,93.659 M204.487,93.197 C204.091,93.210 203.649,93.220 203.140,93.220 L201.888,93.220 C201.415,93.220 200.957,93.210 200.498,93.184 C200.041,93.164 199.716,93.128 199.515,93.089 C199.538,93.197 199.557,93.384 199.576,93.672 C199.582,93.945 199.611,94.445 199.626,95.167 C199.647,96.286 199.654,97.557 199.654,98.984 C199.654,100.402 199.647,101.678 199.626,102.817 C199.611,103.531 199.582,104.033 199.576,104.305 C199.557,104.589 199.538,104.780 199.515,104.886 C199.749,104.850 200.098,104.819 200.557,104.791 C201.004,104.764 201.455,104.744 201.888,104.744 L203.140,104.744 C203.535,104.744 203.978,104.764 204.457,104.791 C204.937,104.819 205.294,104.850 205.534,104.886 C205.487,104.718 205.468,104.523 205.468,104.305 C205.468,104.089 205.487,103.895 205.534,103.720 C205.310,103.767 204.915,103.798 204.380,103.837 C203.826,103.871 203.304,103.888 202.805,103.888 L202.252,103.888 L201.135,103.875 C201.091,102.539 201.079,100.971 201.085,99.156 L202.570,99.167 C203.056,99.167 203.546,99.188 204.059,99.218 C204.565,99.231 204.915,99.260 205.124,99.300 C205.084,99.137 205.058,98.951 205.058,98.747 C205.058,98.530 205.084,98.335 205.124,98.169 C204.915,98.208 204.565,98.242 204.059,98.265 C203.546,98.293 203.056,98.306 202.570,98.306 L201.070,98.314 L201.135,94.110 C201.574,94.088 202.050,94.087 202.559,94.088 L203.140,94.088 C203.596,94.088 204.059,94.098 204.529,94.132 C205.011,94.166 205.329,94.205 205.534,94.256 C205.487,94.088 205.468,93.889 205.468,93.681 C205.468,93.452 205.487,93.260 205.534,93.089 C205.236,93.138 204.892,93.177 204.487,93.197 M42.874,93.197 C42.894,93.292 42.911,93.497 42.928,93.775 C42.941,94.044 42.960,94.542 42.979,95.269 C43.006,96.404 43.015,97.690 43.015,99.102 L43.006,102.059 L40.284,99.188 C38.094,96.837 36.295,94.846 34.889,93.220 L34.633,93.220 L34.373,93.220 C34.397,93.337 34.414,93.529 34.425,93.807 C34.445,94.087 34.459,94.577 34.484,95.291 C34.504,96.388 34.505,97.617 34.505,98.985 C34.505,100.347 34.504,101.589 34.484,102.709 C34.459,103.427 34.445,103.919 34.425,104.195 C34.414,104.474 34.397,104.673 34.373,104.780 C34.548,104.758 34.740,104.744 34.960,104.744 C35.177,104.744 35.378,104.758 35.546,104.780 C35.525,104.653 35.511,104.447 35.493,104.171 C35.479,103.895 35.456,103.407 35.440,102.709 C35.404,101.602 35.389,100.359 35.382,98.984 L35.382,96.108 L38.122,99.013 C40.312,101.365 42.109,103.349 43.516,104.971 L43.750,104.971 L43.984,104.971 C43.931,103.407 43.909,101.450 43.909,99.102 C43.909,97.677 43.916,96.404 43.931,95.269 C43.960,94.542 43.979,94.044 43.993,93.775 C44.006,93.497 44.021,93.292 44.041,93.197 C43.870,93.217 43.680,93.220 43.463,93.220 C43.245,93.220 43.046,93.217 42.874,93.197 M62.750,93.184 C61.991,93.207 61.383,93.220 60.945,93.220 L60.492,93.220 L60.047,93.220 C59.633,93.220 59.049,93.207 58.285,93.184 C57.520,93.156 56.835,93.128 56.236,93.089 C56.269,93.255 56.285,93.437 56.285,93.659 C56.285,93.872 56.269,94.063 56.236,94.221 C56.418,94.186 56.782,94.158 57.334,94.128 C57.880,94.098 58.418,94.088 58.952,94.088 L59.840,94.076 C59.880,95.452 59.895,97.091 59.895,98.997 C59.895,100.371 59.883,101.602 59.862,102.709 C59.840,103.427 59.824,103.925 59.811,104.190 C59.793,104.474 59.779,104.673 59.758,104.780 C60.008,104.758 60.300,104.744 60.610,104.744 C60.933,104.744 61.220,104.758 61.473,104.780 C61.454,104.673 61.430,104.474 61.421,104.195 C61.408,103.925 61.392,103.427 61.365,102.709 C61.349,101.615 61.342,100.374 61.342,98.992 C61.342,97.091 61.359,95.452 61.392,94.088 L62.030,94.088 C62.556,94.088 63.091,94.098 63.639,94.128 C64.178,94.158 64.556,94.186 64.750,94.221 C64.717,94.063 64.702,93.872 64.702,93.659 C64.702,93.437 64.717,93.255 64.750,93.089 C64.178,93.128 63.510,93.156 62.750,93.184 M50.785,99.464 C50.194,99.474 49.663,99.442 49.175,99.364 L49.350,98.937 C49.871,97.713 50.128,97.096 50.128,97.096 C50.128,97.096 50.358,96.601 50.811,95.606 L50.824,95.606 L52.256,98.951 L52.419,99.345 C51.914,99.415 51.374,99.454 50.785,99.464 M53.773,99.019 C52.783,96.710 51.983,94.779 51.374,93.220 L51.162,93.220 L50.966,93.220 C50.358,94.799 49.543,96.734 48.517,99.036 C47.906,100.393 47.351,101.621 46.832,102.709 C46.465,103.456 46.218,103.967 46.078,104.240 C45.933,104.523 45.837,104.705 45.784,104.780 C45.979,104.758 46.198,104.744 46.440,104.744 C46.692,104.744 46.918,104.758 47.108,104.780 C47.183,104.441 47.267,104.138 47.361,103.862 C47.450,103.585 47.602,103.200 47.797,102.697 C48.064,101.996 48.368,101.247 48.713,100.449 C49.321,100.319 50.019,100.270 50.805,100.304 C51.575,100.313 52.266,100.371 52.883,100.449 L53.808,102.697 C54.031,103.232 54.186,103.647 54.274,103.925 C54.379,104.200 54.461,104.490 54.528,104.780 C54.792,104.758 55.097,104.744 55.437,104.744 C55.779,104.744 56.081,104.758 56.348,104.780 L55.384,102.709 C54.894,101.615 54.354,100.387 53.773,99.019 M11.151,93.724 C11.718,93.724 12.277,93.850 12.834,94.110 C13.392,94.365 13.852,94.710 14.207,95.139 L14.478,95.139 C14.537,94.870 14.592,94.631 14.648,94.445 C14.704,94.247 14.773,94.017 14.860,93.747 C14.261,93.497 13.668,93.302 13.074,93.180 C12.474,93.068 11.824,93.004 11.126,93.004 C9.307,93.004 7.823,93.579 6.695,94.710 C5.566,95.858 4.1000,97.340 4.1000,99.188 C4.1000,100.904 5.527,102.299 6.596,103.369 C7.661,104.441 9.051,104.971 10.765,104.971 C11.504,104.971 12.173,104.894 12.772,104.744 C13.371,104.599 13.954,104.371 14.532,104.049 C14.541,103.862 14.559,103.697 14.579,103.542 C14.597,103.407 14.630,103.236 14.668,103.054 L14.532,102.893 C14.115,103.307 13.594,103.640 12.971,103.885 C12.358,104.122 11.715,104.255 11.056,104.255 C9.796,104.255 8.754,103.767 7.930,102.800 C7.105,101.838 6.692,100.617 6.692,99.133 C6.692,97.495 7.101,96.182 7.916,95.200 C8.728,94.221 9.805,93.724 11.151,93.724 M31.286,93.775 C31.298,93.501 31.324,93.308 31.339,93.197 C31.092,93.217 30.802,93.220 30.483,93.220 C30.160,93.220 29.871,93.217 29.625,93.197 C29.645,93.308 29.663,93.501 29.672,93.775 C29.691,94.057 29.706,94.542 29.727,95.269 C29.750,96.373 29.756,97.601 29.756,98.985 C29.756,100.358 29.750,101.589 29.727,102.709 C29.706,103.427 29.691,103.919 29.676,104.190 C29.663,104.474 29.645,104.673 29.625,104.780 C29.871,104.758 30.160,104.744 30.483,104.744 C30.802,104.744 31.092,104.758 31.339,104.780 C31.324,104.673 31.298,104.474 31.286,104.195 C31.271,103.925 31.256,103.427 31.231,102.709 C31.212,101.602 31.202,100.371 31.202,98.984 C31.202,97.617 31.212,96.379 31.231,95.269 C31.256,94.542 31.271,94.057 31.286,93.775 M26.568,93.775 C26.579,93.501 26.598,93.308 26.622,93.197 C26.362,93.217 26.080,93.220 25.760,93.220 C25.441,93.220 25.160,93.217 24.901,93.197 C24.925,93.292 24.946,93.497 24.949,93.775 C24.964,94.044 24.988,94.542 25.008,95.269 L25.044,98.026 C24.059,98.124 22.948,98.169 21.701,98.169 C20.455,98.169 19.343,98.124 18.371,98.026 C18.371,97.036 18.381,96.118 18.401,95.269 C18.427,94.542 18.443,94.044 18.454,93.775 C18.471,93.497 18.489,93.292 18.511,93.197 C18.253,93.217 17.970,93.220 17.651,93.220 C17.332,93.220 17.047,93.217 16.790,93.197 C16.810,93.308 16.831,93.501 16.846,93.775 C16.862,94.057 16.872,94.542 16.900,95.269 C16.925,96.373 16.938,97.601 16.925,98.985 C16.925,100.358 16.916,101.589 16.900,102.709 C16.872,103.427 16.862,103.919 16.853,104.190 C16.837,104.474 16.810,104.673 16.790,104.780 C17.047,104.758 17.332,104.744 17.651,104.744 C17.970,104.744 18.253,104.758 18.511,104.780 C18.489,104.673 18.471,104.489 18.454,104.207 C18.443,103.937 18.427,103.439 18.401,102.712 C18.371,101.659 18.361,100.477 18.371,99.167 C19.352,99.073 20.464,99.029 21.714,99.029 C22.960,99.019 24.072,99.063 25.044,99.167 C25.044,100.468 25.033,101.659 25.008,102.712 C24.988,103.439 24.964,103.937 24.949,104.207 C24.946,104.489 24.925,104.673 24.901,104.780 C25.160,104.758 25.441,104.744 25.760,104.744 C26.080,104.744 26.362,104.758 26.622,104.780 C26.598,104.673 26.579,104.474 26.568,104.195 C26.551,103.925 26.533,103.427 26.509,102.709 C26.484,101.602 26.478,100.371 26.483,98.984 C26.483,97.617 26.494,96.379 26.509,95.269 C26.533,94.542 26.551,94.057 26.568,93.775 M91.375,98.035 C90.569,97.759 89.977,97.429 89.608,97.064 C89.237,96.700 89.046,96.253 89.046,95.728 C89.046,95.139 89.240,94.666 89.626,94.283 C90.013,93.915 90.507,93.724 91.116,93.724 C91.540,93.724 91.936,93.841 92.295,94.057 C92.656,94.283 92.945,94.590 93.171,94.996 L93.398,95.028 C93.455,94.775 93.508,94.563 93.552,94.379 C93.603,94.208 93.662,93.996 93.749,93.756 C93.375,93.505 92.962,93.326 92.525,93.197 C92.083,93.068 91.612,93.004 91.110,93.004 C90.177,93.004 89.399,93.308 88.752,93.915 C88.114,94.527 87.791,95.269 87.791,96.145 C87.791,96.971 88.007,97.623 88.450,98.117 C88.891,98.618 89.632,99.053 90.663,99.409 C91.486,99.698 92.071,100.038 92.450,100.421 C92.818,100.813 93.010,101.295 93.010,101.872 C93.010,102.565 92.784,103.142 92.348,103.585 C91.907,104.033 91.332,104.255 90.637,104.255 C90.129,104.255 89.646,104.108 89.178,103.825 C88.703,103.540 88.349,103.164 88.102,102.709 L87.841,102.778 C87.811,103.003 87.778,103.200 87.749,103.357 C87.722,103.518 87.666,103.711 87.601,103.937 C87.908,104.276 88.308,104.537 88.797,104.710 C89.285,104.883 89.858,104.971 90.504,104.971 C91.540,104.971 92.418,104.620 93.133,103.925 C93.850,103.221 94.215,102.369 94.215,101.356 C94.215,100.516 93.993,99.840 93.562,99.339 C93.125,98.833 92.392,98.391 91.375,98.035 M101.956,93.184 C101.188,93.207 100.585,93.220 100.146,93.220 L99.691,93.220 L99.242,93.220 C98.837,93.220 98.248,93.207 97.489,93.184 C96.723,93.156 96.040,93.128 95.438,93.089 C95.468,93.255 95.490,93.437 95.490,93.659 C95.490,93.872 95.468,94.063 95.438,94.221 C95.626,94.186 95.993,94.158 96.531,94.128 C97.075,94.098 97.626,94.088 98.158,94.088 L99.037,94.076 C99.083,95.452 99.101,97.091 99.095,98.997 C99.095,100.371 99.086,101.602 99.067,102.709 C99.047,103.427 99.025,103.925 99.017,104.190 C98.999,104.474 98.980,104.673 98.958,104.780 C99.210,104.758 99.501,104.744 99.819,104.744 C100.138,104.744 100.423,104.758 100.680,104.780 C100.657,104.673 100.638,104.474 100.626,104.195 C100.609,103.925 100.588,103.427 100.566,102.709 C100.549,101.615 100.541,100.374 100.541,98.992 C100.541,97.091 100.559,95.452 100.594,94.088 L101.232,94.088 C101.755,94.088 102.295,94.098 102.840,94.128 C103.385,94.158 103.750,94.186 103.960,94.221 C103.922,94.063 103.906,93.872 103.906,93.659 C103.906,93.437 103.922,93.255 103.960,93.089 C103.385,93.128 102.717,93.156 101.956,93.184 M84.236,93.197 C84.251,93.327 84.264,93.529 84.267,93.803 C84.273,94.076 84.284,94.563 84.289,95.269 L84.319,99.102 L84.319,99.435 C84.325,101.042 84.040,102.224 83.467,102.962 C82.893,103.711 81.985,104.079 80.736,104.079 C79.551,104.079 78.672,103.734 78.097,103.028 C77.523,102.323 77.235,101.236 77.224,99.777 L77.224,99.102 C77.224,97.677 77.235,96.404 77.254,95.269 C77.273,94.600 77.298,94.122 77.316,93.841 C77.329,93.564 77.355,93.353 77.390,93.197 C77.142,93.217 76.860,93.220 76.545,93.220 C76.235,93.220 75.946,93.217 75.696,93.197 C75.722,93.349 75.740,93.560 75.752,93.841 C75.761,94.112 75.770,94.587 75.781,95.269 L75.809,99.102 L75.809,100.304 C75.817,101.892 76.199,103.068 76.957,103.831 C77.716,104.599 78.890,104.971 80.464,104.971 C82.020,104.971 83.201,104.523 84.010,103.635 C84.813,102.748 85.220,101.441 85.220,99.727 L85.220,99.102 C85.220,97.677 85.232,96.404 85.272,95.269 C85.291,94.631 85.313,94.178 85.334,93.902 C85.348,93.621 85.375,93.384 85.409,93.197 C85.232,93.217 85.034,93.220 84.823,93.220 C84.606,93.220 84.407,93.217 84.236,93.197 M67.384,98.365 L67.384,94.004 C67.804,93.972 68.263,93.955 68.769,93.945 C69.631,93.945 70.293,94.128 70.756,94.470 C71.219,94.823 71.449,95.334 71.449,95.994 C71.449,96.703 71.148,97.271 70.548,97.699 C69.945,98.132 69.146,98.335 68.144,98.335 C67.878,98.335 67.627,98.335 67.384,98.365 M72.575,102.709 L71.678,101.576 C70.897,100.598 70.231,99.731 69.675,98.972 C70.476,98.836 71.165,98.587 71.740,98.208 C72.640,97.623 73.088,96.868 73.088,95.928 C73.088,95.012 72.782,94.341 72.169,93.879 C71.569,93.425 70.650,93.197 69.433,93.197 C69.234,93.197 69.012,93.201 68.759,93.207 C68.514,93.207 68.240,93.210 67.924,93.220 C67.733,93.241 67.468,93.241 67.115,93.233 C66.767,93.220 66.335,93.210 65.823,93.197 C65.844,93.292 65.866,93.497 65.878,93.775 C65.890,94.044 65.906,94.542 65.932,95.269 C65.946,96.373 65.958,97.601 65.958,98.985 C65.958,100.358 65.946,101.589 65.932,102.709 C65.906,103.427 65.898,103.931 65.884,104.200 C65.866,104.480 65.844,104.673 65.823,104.780 C66.071,104.758 66.363,104.744 66.688,104.744 C67.005,104.744 67.288,104.758 67.542,104.780 C67.515,104.673 67.503,104.474 67.493,104.195 C67.471,103.925 67.452,103.427 67.437,102.709 C67.416,101.628 67.402,100.421 67.402,99.085 L67.940,99.085 C68.508,99.762 69.151,100.571 69.861,101.500 L70.787,102.709 C71.228,103.266 71.544,103.676 71.740,103.943 C71.933,104.223 72.100,104.497 72.236,104.780 C72.538,104.758 72.885,104.744 73.277,104.744 C73.666,104.744 74.013,104.758 74.314,104.780 C74.246,104.718 74.096,104.550 73.860,104.276 C73.634,103.995 73.202,103.471 72.575,102.709 "/>
</svg>